<svg width="51" height="52" viewBox="0 0 51 52" fill="none" xmlns="http://www.w3.org/2000/svg">
<path fill-rule="evenodd" clip-rule="evenodd" d="M23.4147 42.5572C23.1013 42.5601 22.7874 42.5631 22.4736 42.5661L22.472 42.5661C22.7862 42.5631 23.1009 42.5601 23.4147 42.5572Z" fill="#FFDA27"/>
<path d="M9.87368 49.5054C10.016 50.2484 10.3163 50.5329 10.751 50.7542C11.1857 50.9755 11.7547 51.1336 12.4977 50.8491C13.2406 50.5645 14.1574 49.8374 15.8488 48.3831C17.5402 46.9288 20.0061 44.7475 22.472 42.5661L22.4736 42.5661L23.4147 42.5572C28.121 42.5129 32.7364 42.4707 35.9003 42.4633C39.2752 42.4554 40.9981 42.487 42.4682 42.2657C43.9383 42.0444 45.1554 41.5702 46.4753 40.6455C47.7953 39.7207 49.2178 38.3456 49.8976 36.0298C50.5773 33.714 50.5141 30.4578 50.4825 25.9131C50.4508 21.3685 50.4508 15.5358 50.3876 12.2004C50.3244 8.86504 50.1979 8.02729 49.7474 6.96028C49.2969 5.89328 48.5224 4.59713 47.566 3.4827C46.6097 2.36827 45.4716 1.43568 43.4087 0.977263C41.3907 0.528815 38.4879 0.534187 34.2486 0.542032L33.9639 0.542554C29.5694 0.550457 23.7684 0.550458 18.8917 0.518843C14.0151 0.487228 10.0635 0.424002 7.47101 1.0405C4.87858 1.65699 3.64564 2.95316 2.79204 4.05967C1.93845 5.16619 1.46424 6.08299 1.14809 6.85755C0.831947 7.63211 0.673878 8.26439 0.602746 11.2915C0.531613 14.3187 0.54742 19.7404 0.563228 25.1623C0.499998 28.1973 0.436772 31.2322 0.626462 33.4374C0.816152 35.6425 1.25874 37.0177 2.14396 38.306C3.02918 39.5943 4.35694 40.7956 5.70058 41.4833C7.04422 42.1709 8.40361 42.3448 9.76303 42.5187V46.3598C9.74723 47.5612 9.73142 48.7625 9.87368 49.5054Z" fill="#FFDA27"/>
<path d="M22.472 42.5661C20.0061 44.7475 17.5402 46.9288 15.8488 48.3831C14.1574 49.8374 13.2406 50.5645 12.4977 50.8491C11.7547 51.1336 11.1857 50.9755 10.751 50.7542C10.3163 50.5329 10.016 50.2484 9.87369 49.5054C9.73142 48.7625 9.74723 47.5612 9.76304 46.3598V42.5187C8.40361 42.3448 7.04422 42.1709 5.70058 41.4833C4.35694 40.7956 3.02918 39.5943 2.14396 38.306C1.25874 37.0177 0.816152 35.6425 0.626462 33.4374C0.436772 31.2322 0.499998 28.1973 0.563228 25.1623C0.54742 19.7404 0.531613 14.3187 0.602746 11.2915C0.673878 8.26439 0.831947 7.63211 1.14809 6.85755C1.46424 6.08299 1.93845 5.16619 2.79204 4.05967C3.64564 2.95316 4.87858 1.65699 7.47101 1.0405C10.0635 0.424002 14.0151 0.487228 18.8917 0.518843C23.7684 0.550458 29.5694 0.550457 33.9639 0.542554M22.472 42.5661L22.4736 42.5661M22.472 42.5661C22.7862 42.5631 23.1009 42.5601 23.4147 42.5572M33.9639 0.542554L34.2487 0.542032M33.9639 0.542554C34.0595 0.542382 34.1544 0.542206 34.2487 0.542032M23.4147 42.5572C23.1013 42.5601 22.7874 42.5631 22.4736 42.5661M23.4147 42.5572C28.121 42.5129 32.7364 42.4707 35.9003 42.4633C39.2752 42.4554 40.9981 42.487 42.4682 42.2657C43.9383 42.0444 45.1554 41.5702 46.4753 40.6455C47.7953 39.7207 49.2179 38.3456 49.8976 36.0298C50.5773 33.714 50.5141 30.4578 50.4825 25.9131C50.4508 21.3685 50.4508 15.5358 50.3876 12.2004C50.3244 8.86504 50.1979 8.02729 49.7474 6.96028C49.2969 5.89328 48.5224 4.59713 47.566 3.4827C46.6097 2.36827 45.4716 1.43568 43.4087 0.977263C41.3907 0.528815 38.4879 0.534187 34.2487 0.542032M23.4147 42.5572L22.4736 42.5661" stroke="white"/>
<path d="M17.9897 25.8985C18.04 25.5464 18.1853 25.2558 18.4424 25.0602C18.6995 24.8646 19.0683 24.764 19.359 24.7751C19.6496 24.7863 19.8619 24.9093 20.1134 25.1216C20.3649 25.334 20.6555 25.6358 21.0076 25.9432C21.3597 26.2506 21.7733 26.5635 22.2316 26.8206C22.6898 27.0777 23.1928 27.2789 23.7181 27.4186C24.2435 27.5583 24.7912 27.6366 25.3389 27.6757C25.8866 27.7148 26.4343 27.7148 26.9596 27.631C27.4849 27.5471 27.9879 27.3795 28.558 27.1112C29.128 26.8429 29.7651 26.4741 30.2737 26.0941C30.7823 25.714 31.1623 25.3228 31.4697 25.0825C31.7771 24.8422 32.0118 24.7528 32.2689 24.7416C32.5259 24.7304 32.8054 24.7975 33.0177 24.9707C33.2301 25.144 33.3754 25.4234 33.4537 25.7308C33.5319 26.0382 33.5431 26.3735 33.3698 26.7759C33.1966 27.1783 32.8389 27.6477 32.3862 28.0948C31.9335 28.5419 31.3858 28.9667 30.7264 29.3132C30.0669 29.6597 29.2957 29.9279 28.5524 30.1403C27.8091 30.3527 27.0937 30.5091 26.1939 30.5371C25.2941 30.565 24.2099 30.4644 23.2766 30.2521C22.3433 30.0397 21.5609 29.7155 20.907 29.397C20.2531 29.0784 19.7278 28.7655 19.2695 28.3798C18.8113 27.9942 18.4201 27.536 18.2021 27.1C17.9841 26.6641 17.9394 26.2506 17.9897 25.8985Z" fill="#D35F5F" stroke="#3A2B2B"/>
<path d="M35.0464 14.8049C35.3203 14.7602 35.5773 14.749 35.8065 14.7658C36.0356 14.7826 36.2368 14.8273 36.4827 14.9335C36.7286 15.0396 37.0192 15.2073 37.2875 15.4308C37.5558 15.6544 37.8016 15.9338 37.9805 16.2189C38.1593 16.5039 38.2711 16.7945 38.3549 17.3254C38.4388 17.8564 38.4946 18.6276 38.4443 19.2423C38.394 19.8571 38.2376 20.3154 38.0364 20.6842C37.8352 21.0531 37.5893 21.3325 37.3098 21.5617C37.0304 21.7908 36.7174 21.9696 36.3598 22.0646C36.0021 22.1596 35.5997 22.1708 35.2532 22.1541C34.9067 22.1373 34.6161 22.0926 34.3534 21.992C34.0907 21.8914 33.856 21.7349 33.6101 21.4834C33.3642 21.2319 33.1071 20.8854 32.9227 20.4998C32.7383 20.1142 32.6265 19.6894 32.5762 19.1864C32.5259 18.6835 32.5371 18.1022 32.6097 17.6272C32.6824 17.1522 32.8165 16.7833 32.9786 16.4592C33.1407 16.135 33.3307 15.8556 33.5375 15.6209C33.7443 15.3861 33.9678 15.1961 34.2249 15.062C34.482 14.9279 34.7726 14.8496 35.0464 14.8049Z" fill="#3A2B2B"/>
<path d="M15.0602 14.8309C15.334 14.7862 15.5911 14.7751 15.8202 14.7918C16.0494 14.8086 16.2505 14.8533 16.4965 14.9595C16.7424 15.0657 17.033 15.2333 17.3012 15.4569C17.5695 15.6804 17.8154 15.9599 17.9942 16.2449C18.1731 16.5299 18.2848 16.8205 18.3687 17.3515C18.4525 17.8824 18.5084 18.6536 18.4581 19.2684C18.4078 19.8831 18.2513 20.3414 18.0501 20.7103C17.8489 21.0791 17.603 21.3585 17.3236 21.5877C17.0441 21.8168 16.7312 21.9957 16.3735 22.0907C16.0158 22.1857 15.6134 22.1969 15.2669 22.1801C14.9204 22.1633 14.6298 22.1186 14.3672 22.018C14.1045 21.9174 13.8698 21.7609 13.6239 21.5094C13.3779 21.2579 13.1209 20.9114 12.9364 20.5258C12.752 20.1402 12.6402 19.7155 12.5899 19.2125C12.5396 18.7095 12.5508 18.1283 12.6235 17.6532C12.6961 17.1782 12.8303 16.8093 12.9923 16.4852C13.1544 16.161 13.3444 15.8816 13.5512 15.6469C13.758 15.4122 13.9815 15.2222 14.2386 15.088C14.4957 14.9539 14.7863 14.8757 15.0602 14.8309Z" fill="#3A2B2B"/>
</svg>
