<svg width="52" height="52" viewBox="0 0 52 52" fill="none" xmlns="http://www.w3.org/2000/svg">
<path fill-rule="evenodd" clip-rule="evenodd" d="M23.8008 43.0569C23.4874 43.0599 23.1735 43.0628 22.8597 43.0658L22.8582 43.0658C23.1723 43.0628 23.4871 43.0599 23.8008 43.0569Z" fill="#FFDA27"/>
<path d="M10.2598 50.0052C10.4021 50.7481 10.7024 51.0326 11.1371 51.2539C11.5718 51.4753 12.1408 51.6333 12.8838 51.3488C13.6268 51.0642 14.5435 50.3371 16.2349 48.8828C17.9263 47.4286 20.3922 45.2472 22.8582 43.0658L22.8597 43.0658L23.8008 43.0569C28.5071 43.0126 33.1225 42.9705 36.2864 42.9631C39.6613 42.9551 41.3842 42.9868 42.8543 42.7655C44.3244 42.5442 45.5415 42.07 46.8614 41.1452C48.1814 40.2205 49.604 38.8453 50.2837 36.5295C50.9634 34.2137 50.9002 30.9575 50.8686 26.4129C50.837 21.8682 50.837 16.0356 50.7737 12.7002C50.7105 9.36477 50.584 8.52702 50.1335 7.46001C49.683 6.393 48.9085 5.09686 47.9521 3.98243C46.9958 2.868 45.8577 1.93541 43.7948 1.47699C41.7768 1.02854 38.874 1.03391 34.6348 1.04176L34.35 1.04228C29.9555 1.05018 24.1545 1.05018 19.2778 1.01857C14.4012 0.986953 10.4496 0.923727 7.85712 1.54022C5.26469 2.15672 4.03175 3.45288 3.17815 4.5594C2.32456 5.66591 1.85035 6.58271 1.5342 7.35727C1.21806 8.13183 1.05999 8.76411 0.988854 11.7913C0.917722 14.8184 0.933529 20.2402 0.949336 25.662C0.886107 28.697 0.82288 31.732 1.01257 33.9371C1.20226 36.1423 1.64485 37.5174 2.53007 38.8058C3.41529 40.0941 4.74305 41.2954 6.08669 41.983C7.43033 42.6706 8.78972 42.8445 10.1491 43.0184V46.8595C10.1333 48.0609 10.1175 49.2622 10.2598 50.0052Z" fill="#FFDA27"/>
<path d="M22.8582 43.0658C20.3922 45.2472 17.9264 47.4286 16.2349 48.8828C14.5435 50.3371 13.6268 51.0642 12.8838 51.3488C12.1408 51.6333 11.5718 51.4753 11.1371 51.2539C10.7024 51.0326 10.4021 50.7481 10.2598 50.0052C10.1175 49.2622 10.1333 48.0609 10.1491 46.8595V43.0184C8.78972 42.8445 7.43033 42.6706 6.08669 41.983C4.74305 41.2954 3.41529 40.0941 2.53007 38.8058C1.64485 37.5174 1.20226 36.1423 1.01257 33.9371C0.82288 31.732 0.886107 28.697 0.949336 25.662C0.933529 20.2402 0.917722 14.8184 0.988854 11.7913C1.05999 8.76411 1.21806 8.13183 1.5342 7.35727C1.85035 6.58271 2.32456 5.66591 3.17815 4.5594C4.03175 3.45288 5.26469 2.15672 7.85712 1.54022C10.4496 0.923727 14.4012 0.986953 19.2778 1.01857C24.1545 1.05018 29.9555 1.05018 34.35 1.04228M22.8582 43.0658L22.8597 43.0658M22.8582 43.0658C23.1723 43.0628 23.4871 43.0599 23.8008 43.0569M34.35 1.04228L34.6348 1.04176M34.35 1.04228C34.4456 1.04211 34.5405 1.04193 34.6348 1.04176M23.8008 43.0569C23.4874 43.0599 23.1735 43.0628 22.8597 43.0658M23.8008 43.0569C28.5071 43.0126 33.1225 42.9705 36.2864 42.9631C39.6613 42.9551 41.3842 42.9868 42.8543 42.7655C44.3244 42.5442 45.5415 42.07 46.8614 41.1452C48.1814 40.2205 49.604 38.8453 50.2837 36.5295C50.9634 34.2137 50.9002 30.9575 50.8686 26.4129C50.837 21.8682 50.837 16.0356 50.7737 12.7002C50.7105 9.36477 50.584 8.52702 50.1335 7.46001C49.683 6.393 48.9085 5.09686 47.9521 3.98243C46.9958 2.868 45.8577 1.93541 43.7948 1.47699C41.7768 1.02854 38.874 1.03391 34.6348 1.04176M23.8008 43.0569L22.8597 43.0658" stroke="white"/>
<path d="M18.3758 26.3982C18.4261 26.0461 18.5714 25.7555 18.8285 25.5599C19.0856 25.3643 19.4545 25.2637 19.7451 25.2749C20.0357 25.286 20.248 25.409 20.4995 25.6214C20.751 25.8337 21.0416 26.1355 21.3937 26.4429C21.7458 26.7503 22.1594 27.0632 22.6177 27.3203C23.0759 27.5774 23.5789 27.7786 24.1043 27.9183C24.6296 28.058 25.1773 28.1363 25.725 28.1754C26.2727 28.2145 26.8204 28.2145 27.3457 28.1307C27.871 28.0469 28.374 27.8792 28.9441 27.6109C29.5141 27.3427 30.1512 26.9738 30.6598 26.5938C31.1684 26.2138 31.5484 25.8226 31.8558 25.5822C32.1632 25.3419 32.3979 25.2525 32.655 25.2413C32.912 25.2302 33.1915 25.2972 33.4038 25.4705C33.6162 25.6437 33.7615 25.9232 33.8398 26.2305C33.918 26.5379 33.9292 26.8732 33.7559 27.2756C33.5827 27.678 33.225 28.1475 32.7723 28.5946C32.3196 29.0417 31.7719 29.4664 31.1125 29.8129C30.453 30.1594 29.6818 30.4276 28.9385 30.64C28.1952 30.8524 27.4798 31.0089 26.58 31.0368C25.6802 31.0648 24.5961 30.9642 23.6627 30.7518C22.7294 30.5394 21.947 30.2153 21.2931 29.8967C20.6392 29.5782 20.1139 29.2652 19.6556 28.8796C19.1974 28.4939 18.8062 28.0357 18.5882 27.5998C18.3702 27.1638 18.3255 26.7503 18.3758 26.3982Z" fill="#D35F5F" stroke="#3A2B2B"/>
<path d="M35.4325 15.3046C35.7064 15.2599 35.9635 15.2488 36.1926 15.2655C36.4217 15.2823 36.6229 15.327 36.8688 15.4332C37.1147 15.5394 37.4053 15.707 37.6736 15.9306C37.9419 16.1541 38.1878 16.4336 38.3666 16.7186C38.5454 17.0036 38.6572 17.2942 38.741 17.8251C38.8249 18.3561 38.8808 19.1273 38.8305 19.7421C38.7802 20.3568 38.6237 20.8151 38.4225 21.184C38.2213 21.5528 37.9754 21.8322 37.6959 22.0614C37.4165 22.2905 37.1036 22.4694 36.7459 22.5644C36.3882 22.6594 35.9858 22.6705 35.6393 22.6538C35.2928 22.637 35.0022 22.5923 34.7395 22.4917C34.4769 22.3911 34.2421 22.2346 33.9962 21.9831C33.7503 21.7316 33.4932 21.3851 33.3088 20.9995C33.1244 20.6139 33.0126 20.1892 32.9623 19.6862C32.912 19.1832 32.9232 18.602 32.9959 18.1269C33.0685 17.6519 33.2026 17.283 33.3647 16.9589C33.5268 16.6347 33.7168 16.3553 33.9236 16.1206C34.1304 15.8859 34.3539 15.6958 34.611 15.5617C34.8681 15.4276 35.1587 15.3493 35.4325 15.3046Z" fill="#3A2B2B"/>
<path d="M15.4463 15.3307C15.7201 15.286 15.9772 15.2748 16.2063 15.2916C16.4355 15.3083 16.6367 15.353 16.8826 15.4592C17.1285 15.5654 17.4191 15.7331 17.6873 15.9566C17.9556 16.1802 18.2015 16.4596 18.3803 16.7446C18.5592 17.0296 18.6709 17.3202 18.7548 17.8512C18.8386 18.3821 18.8945 19.1533 18.8442 19.7681C18.7939 20.3829 18.6374 20.8411 18.4362 21.21C18.235 21.5788 17.9891 21.8583 17.7097 22.0874C17.4302 22.3165 17.1173 22.4954 16.7596 22.5904C16.4019 22.6854 15.9995 22.6966 15.653 22.6798C15.3065 22.663 15.0159 22.6183 14.7533 22.5177C14.4906 22.4171 14.2559 22.2607 14.01 22.0092C13.7641 21.7577 13.507 21.4112 13.3226 21.0255C13.1381 20.6399 13.0264 20.2152 12.9761 19.7122C12.9258 19.2092 12.9369 18.628 13.0096 18.153C13.0822 17.6779 13.2164 17.3091 13.3784 16.9849C13.5405 16.6608 13.7305 16.3813 13.9373 16.1466C14.1441 15.9119 14.3676 15.7219 14.6247 15.5877C14.8818 15.4536 15.1724 15.3754 15.4463 15.3307Z" fill="#3A2B2B"/>
</svg>
