<svg width="512" height="512" viewBox="0 0 512 512" fill="none" xmlns="http://www.w3.org/2000/svg">
<path d="M108.039 121.78C108.039 121.78 107.011 123.562 106.069 124.316C102.888 126.864 102.132 129.134 98.9412 131.669C96.4311 133.663 94.8923 135.04 91.7385 135.6C89.4016 136.014 87.9316 135.95 85.6732 135.219C83.7156 134.586 82.4402 134.142 81.1242 132.557C79.9331 131.122 79.6675 129.959 79.3552 128.119C78.9552 125.764 79.2257 124.298 79.987 122.033C80.853 119.458 81.827 118.09 83.7778 116.201C85.6897 114.35 86.8292 112.871 89.0491 111.406C91.7952 109.593 96.4139 107.706 96.4139 107.706C96.4139 107.706 88.8934 106.645 84.2833 105.171C81.6637 104.333 79.9206 104.277 77.7125 102.635C76.1973 101.508 75.3258 100.748 74.4271 99.085C73.6901 97.7216 73.5331 96.8128 73.2899 95.2814C73.0645 93.8626 72.8713 93.0112 73.1635 91.6045C73.5468 89.7593 74.349 88.8592 75.5644 87.4206C76.8348 85.9169 77.6862 85.0542 79.4815 84.2509C82.2305 83.0208 84.2497 83.4743 87.1896 84.1242C90.3799 84.8292 91.8002 86.3176 94.6449 87.9278C97.793 89.7098 102.479 92.8724 102.479 92.8724C102.479 92.8724 100.791 88.0294 99.8285 84.6829C99.1275 82.2452 98.6206 80.5561 98.3092 78.0384C97.9868 75.4299 97.96 73.8436 98.6883 71.3186C99.3389 69.064 99.8152 67.656 101.468 65.9936C103.323 64.1287 104.918 63.3249 107.534 63.0775C109.74 62.8687 111.107 63.234 113.093 64.2186C115.504 65.413 116.724 66.6768 118.022 69.0365C119.543 71.8024 119.44 72.1103 119.791 75.249C120.335 80.1244 119.791 89.576 119.791 89.576C119.791 89.576 123.977 83.6917 126.993 80.1937C128.707 78.2063 129.502 76.8975 131.542 75.249C132.789 74.2415 133.49 73.6192 134.954 72.9669C137.059 72.0287 138.485 71.6304 140.767 71.9526C142.737 72.2308 143.854 72.7803 145.442 73.9812C146.982 75.1451 147.782 76.0353 148.601 77.7848C149.454 79.6048 149.64 80.8516 149.486 82.8563C149.307 85.1845 148.553 86.4427 147.337 88.4348C146.169 90.3492 145.13 91.1591 143.547 92.7457C139.391 96.9094 131.29 101.494 131.29 101.494L145.316 103.015C145.316 103.015 150.855 104.155 153.024 106.692C154.844 108.822 155.468 110.609 155.551 113.412C155.618 115.705 155.273 117.113 154.161 119.117C152.854 121.474 151.561 122.705 149.106 123.808C146.444 125.006 144.56 124.555 141.651 124.316C135.502 123.809 127.12 118.103 127.12 118.103C127.12 118.103 130.529 127.176 130.279 133.191C130.154 136.2 130.558 138.213 129.015 140.798C127.922 142.63 126.965 143.575 125.098 144.601C123.23 145.629 121.921 145.92 119.791 145.869C116.544 145.792 114.406 144.843 112.209 142.446C110.26 140.32 110.157 138.393 109.429 135.6C108.588 132.373 108.871 130.424 108.545 127.105C108.34 125.026 108.039 121.78 108.039 121.78Z" fill="#EC9F9F" stroke="#3A2B2B" stroke-width="2"/>
<path d="M114.012 114.248C118.399 114.248 121.955 110.685 121.955 106.288C121.955 101.892 118.399 98.3286 114.012 98.3286C109.626 98.3286 106.069 101.892 106.069 106.288C106.069 110.685 109.626 114.248 114.012 114.248Z" fill="#FFEEC7"/>
<path d="M388.33 340.031C388.33 340.031 387.302 341.811 386.36 342.565C383.18 345.113 382.424 347.384 379.232 349.919C376.723 351.913 375.183 353.289 372.031 353.849C369.694 354.263 368.224 354.201 365.965 353.469C364.007 352.835 362.731 352.392 361.416 350.808C360.224 349.373 359.958 348.209 359.646 346.37C359.246 344.014 359.516 342.549 360.279 340.283C361.144 337.707 362.118 336.341 364.07 334.451C365.981 332.6 367.121 331.121 369.341 329.656C372.087 327.843 376.705 325.958 376.705 325.958C376.705 325.958 369.185 324.895 364.574 323.421C361.954 322.583 360.212 322.528 358.004 320.885C356.488 319.758 355.617 318.998 354.719 317.335C353.981 315.973 353.824 315.063 353.582 313.531C353.356 312.113 353.162 311.262 353.455 309.855C353.838 308.008 354.641 307.109 355.857 305.67C357.127 304.167 357.978 303.304 359.773 302.502C362.521 301.271 364.542 301.724 367.482 302.374C370.672 303.08 372.091 304.567 374.936 306.178C378.084 307.96 382.771 311.123 382.771 311.123C382.771 311.123 381.083 306.279 380.119 302.932C379.419 300.495 378.911 298.806 378.6 296.288C378.278 293.681 378.252 292.094 378.98 289.568C379.631 287.313 380.107 285.907 381.76 284.243C383.613 282.378 385.208 281.574 387.826 281.327C390.032 281.119 391.399 281.483 393.385 282.469C395.795 283.663 397.015 284.926 398.314 287.287C399.834 290.053 399.731 290.361 400.082 293.499C400.626 298.375 400.082 307.827 400.082 307.827C400.082 307.827 404.268 301.942 407.285 298.444C408.997 296.455 409.793 295.148 411.834 293.499C413.08 292.49 413.782 291.87 415.246 291.217C417.351 290.278 418.777 289.88 421.058 290.203C423.028 290.482 424.145 291.029 425.734 292.232C427.272 293.396 428.073 294.285 428.892 296.035C429.745 297.856 429.93 299.103 429.777 301.105C429.597 303.435 428.845 304.692 427.629 306.685C426.46 308.599 425.421 309.409 423.838 310.995C419.682 315.16 411.58 319.743 411.58 319.743L425.607 321.265C425.607 321.265 431.146 322.405 433.316 324.943C435.135 327.073 435.76 328.859 435.842 331.662C435.909 333.954 435.564 335.362 434.453 337.367C433.144 339.723 431.852 340.954 429.398 342.057C426.736 343.256 424.851 342.805 421.943 342.565C415.792 342.059 407.41 336.353 407.41 336.353C407.41 336.353 410.82 345.426 410.57 351.44C410.445 354.449 410.85 356.464 409.305 359.049C408.213 360.88 407.257 361.825 405.389 362.852C403.52 363.878 402.211 364.171 400.082 364.119C396.835 364.042 394.698 363.092 392.5 360.696C390.552 358.57 390.447 356.642 389.719 353.849C388.878 350.622 389.163 348.674 388.836 345.355C388.63 343.276 388.33 340.031 388.33 340.031Z" fill="#EC9F9F" stroke="#3A2B2B" stroke-width="2"/>
<path d="M394.303 332.499C398.689 332.499 402.246 328.935 402.246 324.539C402.246 320.143 398.689 316.579 394.303 316.579C389.916 316.579 386.36 320.143 386.36 324.539C386.36 328.935 389.916 332.499 394.303 332.499Z" fill="#FFEEC7"/>
<path d="M120.138 422.885C120.138 422.885 119.11 424.665 118.168 425.419C114.987 427.967 114.231 430.239 111.04 432.773C108.53 434.767 106.991 436.143 103.837 436.703C101.5 437.117 100.03 437.055 97.772 436.323C95.8144 435.689 94.539 435.246 93.223 433.662C92.0321 432.227 91.7663 431.063 91.454 429.224C91.0541 426.868 91.3245 425.403 92.0859 423.137C92.9518 420.561 93.926 419.195 95.8767 417.305C97.7886 415.454 98.9281 413.975 101.148 412.51C103.894 410.697 108.513 408.812 108.513 408.812C108.513 408.812 100.992 407.749 96.3821 406.276C93.7626 405.437 92.0196 405.382 89.8114 403.739C88.2962 402.612 87.4247 401.852 86.526 400.189C85.7889 398.827 85.632 397.917 85.3887 396.386C85.1634 394.967 84.9702 394.116 85.2624 392.71C85.6456 390.863 86.4479 389.963 87.6632 388.525C88.9337 387.021 89.7851 386.158 91.5804 385.356C94.3295 384.125 96.3486 384.578 99.2884 385.229C102.479 385.934 103.899 387.421 106.744 389.032C109.892 390.814 114.578 393.977 114.578 393.977C114.578 393.977 112.89 389.133 111.927 385.786C111.226 383.349 110.719 381.66 110.408 379.142C110.086 376.535 110.059 374.949 110.787 372.423C111.438 370.167 111.914 368.761 113.567 367.098C115.422 365.232 117.017 364.428 119.633 364.182C121.839 363.973 123.206 364.337 125.192 365.323C127.602 366.518 128.823 367.781 130.12 370.141C131.642 372.908 131.539 373.215 131.89 376.353C132.434 381.229 131.89 390.681 131.89 390.681C131.89 390.681 136.076 384.796 139.092 381.298C140.806 379.31 141.601 378.002 143.641 376.353C144.888 375.345 145.589 374.724 147.053 374.072C149.158 373.132 150.584 372.734 152.866 373.057C154.836 373.336 155.953 373.884 157.541 375.086C159.08 376.25 159.881 377.139 160.7 378.889C161.552 380.71 161.739 381.957 161.584 383.959C161.405 386.289 160.652 387.546 159.436 389.539C158.268 391.453 157.229 392.263 155.646 393.849C151.49 398.014 143.389 402.598 143.389 402.598L157.415 404.119C157.415 404.119 162.954 405.259 165.123 407.797C166.943 409.927 167.567 411.714 167.65 414.517C167.717 416.808 167.372 418.217 166.26 420.221C164.953 422.578 163.66 423.808 161.205 424.912C158.543 426.11 156.658 425.659 153.75 425.419C147.601 424.914 139.218 419.207 139.218 419.207C139.218 419.207 142.627 428.28 142.377 434.294C142.252 437.303 142.657 439.318 141.114 441.903C140.02 443.734 139.064 444.679 137.197 445.706C135.329 446.733 134.02 447.026 131.89 446.973C128.643 446.896 126.505 445.946 124.308 443.55C122.359 441.424 122.256 439.496 121.528 436.703C120.687 433.476 120.97 431.528 120.643 428.21C120.439 426.13 120.138 422.885 120.138 422.885Z" fill="#EC9F9F" stroke="#3A2B2B" stroke-width="2"/>
<path d="M126.111 415.353C130.498 415.353 134.054 411.789 134.054 407.393C134.054 402.997 130.498 399.433 126.111 399.433C121.724 399.433 118.168 402.997 118.168 407.393C118.168 411.789 121.724 415.353 126.111 415.353Z" fill="#FFEEC7"/>
</svg>
